<svg width="46" height="57" viewBox="0 0 46 57" fill="none" xmlns="http://www.w3.org/2000/svg">
<path d="M0 15C0 6.71573 6.71573 0 15 0H31C39.2843 0 46 6.71573 46 15V35C46 43.2843 39.2843 50 31 50H15C6.71573 50 0 43.2843 0 35V15Z" fill="url(#paint0_linear_207_83)"/>
<path d="M7 40C7 35.5817 10.5817 32 15 32H31C35.4183 32 39 35.5817 39 40V49C39 53.4183 35.4183 57 31 57H15C10.5817 57 7 53.4183 7 49V40Z" fill="url(#paint1_linear_207_83)"/>
<path fill-rule="evenodd" clip-rule="evenodd" d="M7 47.7519C6.30422 47.4479 5.63597 47.0926 5 46.6909V41C5 36.5817 8.58172 33 13 33H33C37.4183 33 41 36.5817 41 41V46.6909C40.364 47.0926 39.6958 47.4479 39 47.7519V43C39 38.5817 35.4183 35 31 35H15C10.5817 35 7 38.5817 7 43V47.7519Z" fill="#898989"/>
<path d="M9 46H37C37 46 39 46.1268 39 47C39 47.8732 37 48 37 48H9C9 48 7 47.8732 7 47C7 46.1268 9 46 9 46Z" fill="#898989"/>
<path d="M16.9383 15.8792C16.9383 18.7073 14.7273 21 12 21C9.27267 21 7.06173 18.7073 7.06173 15.8792C7.06173 13.0511 6.07407 5.63766 12 10.7584C17.9259 15.8792 16.9383 13.0511 16.9383 15.8792Z" fill="#DC3E3E"/>
<path d="M29.0617 15.8792C29.0617 18.7073 31.2727 21 34 21C36.7273 21 38.9383 18.7073 38.9383 15.8792C38.9383 13.0511 39.9259 5.63766 34 10.7584C28.0741 15.8792 29.0617 13.0511 29.0617 15.8792Z" fill="#DC3E3E"/>
<path d="M22.0824 26.1192C22.4303 25.3157 23.5697 25.3157 23.9177 26.1192L24.993 28.6026C25.2789 29.2629 24.7949 30 24.0754 30H21.9247C21.2051 30 20.7211 29.2629 21.007 28.6026L22.0824 26.1192Z" fill="#898989"/>
<defs>
<linearGradient id="paint0_linear_207_83" x1="23" y1="23.5" x2="23" y2="50" gradientUnits="userSpaceOnUse">
<stop stop-color="#D9D9D9"/>
<stop offset="1" stop-color="#B7B7B7"/>
</linearGradient>
<linearGradient id="paint1_linear_207_83" x1="23" y1="32" x2="23" y2="57" gradientUnits="userSpaceOnUse">
<stop stop-color="#CECECE"/>
<stop offset="1" stop-color="#B4B4B4"/>
</linearGradient>
</defs>
</svg>
