<svg width="62" height="63" viewBox="0 0 62 63" fill="none" xmlns="http://www.w3.org/2000/svg">
<path d="M9.47328 47.8206L24.8168 55.9606L40.6183 62L31 48.8709L21.3817 35.7418L1 32.5908L9.47328 47.8206Z" fill="#B06C6C"/>
<path d="M61 37.186H44.9695L29.9695 22.0875L21.3817 35.7418L31 48.8709L54.2443 47.8206L61 37.186Z" fill="#A65656"/>
<path d="M44.9695 37.186L31.687 11.9781L29.9695 22.0875L44.9695 37.186Z" fill="#B06C6C"/>
<path d="M20.9237 2L21.3817 35.7418L29.9695 22.0875L31.687 11.9781L20.9237 2Z" fill="#B75D5D"/>
<path d="M40.6183 62L54.2443 47.8206L31 48.8709L40.6183 62Z" fill="#A96969"/>
<path d="M21.3817 35.7418L1 32.5908L9.47328 47.8206L24.8168 55.9606L40.6183 62M21.3817 35.7418L20.9237 2L31.687 11.9781M21.3817 35.7418L29.9695 22.0875M21.3817 35.7418L31 48.8709M31.687 11.9781L44.9695 37.186M31.687 11.9781L29.9695 22.0875M44.9695 37.186H61L54.2443 47.8206M44.9695 37.186L29.9695 22.0875M40.6183 62L54.2443 47.8206M40.6183 62L31 48.8709M54.2443 47.8206L31 48.8709" stroke="#AD4949"/>
</svg>
