<svg width="135" height="265" viewBox="0 0 135 265" fill="none" xmlns="http://www.w3.org/2000/svg">
<path d="M35 31.1078C35 20.0621 43.9543 11.1078 55 11.1078H99.127C110.173 11.1078 119.127 20.0621 119.127 31.1078V245C119.127 256.046 110.173 265 99.127 265H55C43.9543 265 35 256.046 35 245V31.1078Z" fill="url(#paint0_linear_324_383)"/>
<path fill-rule="evenodd" clip-rule="evenodd" d="M105.056 67C105.056 51.4271 102.835 42.6091 101.765 40.2031L102.679 39.7969C103.832 42.3909 106.056 51.3729 106.056 67H105.056Z" fill="#984E24"/>
<path d="M109.603 53.9521C109.603 56.5812 107.471 58.7126 104.841 58.7126C102.211 58.7126 100.079 56.5812 100.079 53.9521C100.079 51.3229 99.1269 44.4311 104.841 49.1916C110.555 53.9521 109.603 51.3229 109.603 53.9521Z" fill="#60973E"/>
<path fill-rule="evenodd" clip-rule="evenodd" d="M35 29.521V38.0838H115C116.415 38.0838 117.795 37.9369 119.127 37.6576V29.521C119.127 18.4753 110.173 9.52097 99.127 9.52097H55C43.9543 9.52097 35 18.4753 35 29.521Z" fill="#A78252"/>
<path d="M35 10C35 4.47716 39.4772 0 45 0H133C134.105 0 135 0.895431 135 2V16.497C135 27.5427 126.046 36.497 115 36.497H35V10Z" fill="#31302B"/>
<path d="M58.8096 4.76047C58.8096 3.88409 59.52 3.17365 60.3964 3.17365H74.6831C75.5594 3.17365 76.2699 3.88409 76.2699 4.76047C76.2699 5.63685 75.5594 6.3473 74.6831 6.3473H60.3964C59.52 6.3473 58.8096 5.63685 58.8096 4.76047Z" fill="#6B6A62"/>
<path d="M46.1111 4.76047C46.1111 3.88409 46.8215 3.17365 47.6979 3.17365H54.0481C54.9244 3.17365 55.6349 3.88409 55.6349 4.76047C55.6349 5.63685 54.9244 6.3473 54.0481 6.3473H47.6979C46.8215 6.3473 46.1111 5.63685 46.1111 4.76047Z" fill="#6B6A62"/>
<path d="M35 185.659H119.127V190.419H35V185.659Z" fill="#A97D64"/>
<path d="M93.8889 191C93.8889 189.343 95.2321 188 96.8889 188H113.111C114.768 188 116.111 189.343 116.111 191V200C116.111 201.657 114.768 203 113.111 203H96.8889C95.2321 203 93.8889 201.657 93.8889 200V191Z" fill="#A97D64"/>
<path d="M105 194L95.3775 188L114.623 188L105 194Z" fill="#95674C"/>
<path d="M35 98.5L40.5556 98.5L70.6171 187.171L65.3045 188.633L35 98.5Z" fill="#A97D64"/>
<rect x="105.5" y="144.5" width="13" height="14" rx="3.5" stroke="#A88E54"/>
<rect x="105.5" y="158.5" width="13" height="14" rx="3.5" stroke="#A88E54"/>
<rect x="105.5" y="172.5" width="13" height="14" rx="3.5" stroke="#A88E54"/>
<path fill-rule="evenodd" clip-rule="evenodd" d="M35 185.659V245C35 256.036 43.9378 264.983 54.9694 265H99.1576C110.189 264.983 119.127 256.036 119.127 245V185.659H35Z" fill="#5976C8"/>
<path d="M95.5 104.5L117 128.5L101 158" stroke="#CF5D44" stroke-width="3" stroke-linecap="round" stroke-dasharray="6 6"/>
<path d="M95.5 104.5L117 128.5L101 158" stroke="#C95339" stroke-width="3" stroke-linecap="round" stroke-dasharray="8 8"/>
<path d="M95.5 104.5L117 128.5L101 158" stroke="#CA5136" stroke-width="3" stroke-linecap="round" stroke-dasharray="10 10"/>
<path d="M95.5 104.5L117 128.5L101 158" stroke="#CB4E32" stroke-width="3" stroke-linecap="round" stroke-dasharray="12 12"/>
<path d="M35 92L59.4066 95.6158C61.125 95.8704 62.8726 95.8546 64.586 95.569V95.569C70.8125 94.5313 77.1738 94.6077 83.3735 95.7949L90.5893 97.1767C94.7214 97.9679 97.8913 101.302 98.4733 105.469L108.304 175.857C109.327 183.183 105.764 190.39 99.3208 194.024L98.1194 194.702C93.176 197.49 87.4558 198.585 81.8321 197.818L76.2346 197.055C71.1025 196.355 65.8986 196.363 60.7687 197.079V197.079C51.7951 198.331 43.4013 202.239 36.6666 208.3L32 212.5L31.2667 207.55C30.4399 201.969 31.242 196.268 33.5768 191.131V191.131C34.5147 189.068 35 186.827 35 184.561V92Z" fill="url(#paint1_linear_324_383)"/>
<ellipse cx="31" cy="130" rx="58" ry="20" transform="rotate(-90 31 130)" fill="url(#paint2_linear_324_383)"/>
<ellipse cx="21.5" cy="129.473" rx="37.4364" ry="18.5" transform="rotate(-90 21.5 129.473)" fill="#D73C1A"/>
<ellipse cx="18.5" cy="129.473" rx="37.4364" ry="18.5" transform="rotate(-90 18.5 129.473)" fill="#D2B834"/>
<circle cx="90" cy="107" r="2" fill="#D2B834"/>
<circle cx="92" cy="118" r="2" fill="#D2B834"/>
<circle cx="94" cy="129" r="2" fill="#D2B834"/>
<defs>
<linearGradient id="paint0_linear_324_383" x1="77.0635" y1="11.1078" x2="76.957" y2="265" gradientUnits="userSpaceOnUse">
<stop stop-color="#DEB887"/>
<stop offset="1" stop-color="#B18244"/>
</linearGradient>
<linearGradient id="paint1_linear_324_383" x1="70" y1="92" x2="70" y2="212.5" gradientUnits="userSpaceOnUse">
<stop stop-color="#D73C1A"/>
<stop offset="1" stop-color="#C93C1D"/>
</linearGradient>
<linearGradient id="paint2_linear_324_383" x1="31" y1="110" x2="31" y2="150" gradientUnits="userSpaceOnUse">
<stop stop-color="#C9AF27"/>
<stop offset="1" stop-color="#DCC341"/>
</linearGradient>
</defs>
</svg>
