<svg width="900" height="410" viewBox="0 0 900 410" fill="none" xmlns="http://www.w3.org/2000/svg">
<path d="M860 8.03925H40C17.9086 8.03925 0 25.9479 0 48.0392V370C0 392.092 17.9086 410 40 410H860C882.091 410 900 392.092 900 370V48.0392C900 25.9479 882.091 8.03925 860 8.03925Z" fill="#927147"/>
<path d="M40 2H860C880.987 2 898 19.0132 898 40V361.961C898 382.948 880.987 399.961 860 399.961H40C19.0132 399.961 2 382.948 2 361.961V40C2 19.0132 19.0132 2 40 2Z" fill="#DEB887" stroke="#B68F5C" stroke-width="4"/>
<path d="M830 105.515H70C58.9543 105.515 50 114.469 50 125.515V292.525C50 303.571 58.9543 312.525 70 312.525H830C841.046 312.525 850 303.571 850 292.525V125.515C850 114.469 841.046 105.515 830 105.515Z" fill="#926934"/>
<path d="M830 108.529H70C58.9543 108.529 50 117.483 50 128.529V295.539C50 306.585 58.9543 315.539 70 315.539H830C841.046 315.539 850 306.585 850 295.539V128.529C850 117.483 841.046 108.529 830 108.529Z" fill="#B68F5C"/>
<path d="M294 334.632H56C52.6863 334.632 50 337.318 50 340.632V378.877C50 382.191 52.6863 384.877 56 384.877H294C297.314 384.877 300 382.191 300 378.877V340.632C300 337.318 297.314 334.632 294 334.632Z" fill="#926934"/>
<path d="M569 334.632H331C327.686 334.632 325 337.318 325 340.632V378.877C325 382.191 327.686 384.877 331 384.877H569C572.314 384.877 575 382.191 575 378.877V340.632C575 337.318 572.314 334.632 569 334.632Z" fill="#926934"/>
<path d="M294 336.642H56C52.6863 336.642 50 339.328 50 342.642V380.887C50 384.201 52.6863 386.887 56 386.887H294C297.314 386.887 300 384.201 300 380.887V342.642C300 339.328 297.314 336.642 294 336.642Z" fill="#B68F5C"/>
<path d="M569 336.642H331C327.686 336.642 325 339.328 325 342.642V380.887C325 384.201 327.686 386.887 331 386.887H569C572.314 386.887 575 384.201 575 380.887V342.642C575 339.328 572.314 336.642 569 336.642Z" fill="#B68F5C"/>
<path d="M144.971 14.0686H43.0294C39.6995 14.0686 37 16.7681 37 20.098C37 23.4279 39.6995 26.1274 43.0294 26.1274H144.971C148.301 26.1274 151 23.4279 151 20.098C151 16.7681 148.301 14.0686 144.971 14.0686Z" fill="#EFD1AA"/>
<path d="M199.971 14.0686H166.029C162.699 14.0686 160 16.7681 160 20.098C160 23.4279 162.699 26.1274 166.029 26.1274H199.971C203.301 26.1274 206 23.4279 206 20.098C206 16.7681 203.301 14.0686 199.971 14.0686Z" fill="#EFD1AA"/>
</svg>
