<svg width="134" height="55" viewBox="0 0 134 55" fill="none" xmlns="http://www.w3.org/2000/svg">
<rect y="18.7206" width="100" height="20.098" rx="5" fill="#94662A"/>
<rect y="16.7108" width="100" height="20.098" rx="5" fill="#B68F5C"/>
<path d="M125.196 25.0804C128.468 26.4515 128.468 31.0877 125.196 32.4588L85.5459 49.0728C82.9101 50.1772 80 48.2413 80 45.3836L80 12.1556C80 9.29786 82.9101 7.36197 85.5459 8.46638L125.196 25.0804Z" fill="#94662A"/>
<path d="M125.196 23.0706C128.468 24.4417 128.468 29.0779 125.196 30.449L85.5459 47.063C82.9101 48.1674 80 46.2315 80 43.3738L80 10.1458C80 7.28806 82.9101 5.35217 85.5459 6.45659L125.196 23.0706Z" fill="#B68F5C"/>
</svg>
