<svg width="900" height="459" viewBox="0 0 900 459" fill="none" xmlns="http://www.w3.org/2000/svg">
<rect y="9" width="900" height="450" rx="30" fill="#927147"/>
<rect x="2.5" y="2.5" width="895" height="445" rx="27.5" fill="#DEB887" stroke="#B68F5C" stroke-width="5"/>
<rect x="40" y="365" width="285" height="60" rx="10" fill="#926934"/>
<rect x="353" y="363" width="285" height="60" rx="10" fill="#926934"/>
<rect x="40" y="367" width="285" height="60" rx="10" fill="#B68F5C"/>
<rect x="353" y="365" width="285" height="60" rx="10" fill="#B68F5C"/>
<rect x="39" y="45" width="600" height="300" rx="30" fill="#927147"/>
<rect x="39" y="48" width="600" height="300" rx="30" fill="#B68F5C"/>
<rect x="662" y="45" width="200" height="300" rx="30" fill="#927147"/>
<rect x="662" y="48" width="200" height="300" rx="30" fill="#B68F5C"/>
<rect x="700" y="68" width="130" height="130" rx="15" fill="#927147"/>
<rect x="700" y="66" width="130" height="130" rx="15" fill="#DEB887"/>
</svg>
