<svg width="701" height="491" viewBox="0 0 701 491" fill="none" xmlns="http://www.w3.org/2000/svg">
<rect x="608.425" y="29" width="15.9099" height="282" fill="url(#paint0_linear_220_94)"/>
<rect width="20.6155" height="20.6155" transform="matrix(0.727607 0.685994 -0.727607 0.685994 616 275)" fill="#4A1904"/>
<rect width="20.6155" height="20.6155" transform="matrix(0.727607 0.685994 -0.727607 0.685994 616 250)" fill="#4A1904"/>
<rect width="20.6155" height="20.6155" transform="matrix(0.727607 0.685994 -0.727607 0.685994 616 225)" fill="#4A1904"/>
<rect width="20.6155" height="20.6155" transform="matrix(0.727607 0.685994 -0.727607 0.685994 616 200)" fill="#4A1904"/>
<rect width="20.6155" height="20.6155" transform="matrix(0.727607 0.685994 -0.727607 0.685994 616 175)" fill="#4A1904"/>
<rect width="20.6155" height="20.6155" transform="matrix(0.727607 0.685994 -0.727607 0.685994 616 150)" fill="#4A1904"/>
<rect width="20.6155" height="20.6155" transform="matrix(0.727607 0.685994 -0.727607 0.685994 616 125)" fill="#4A1904"/>
<rect width="20.6155" height="20.6155" transform="matrix(0.727607 0.685994 -0.727607 0.685994 616 100)" fill="#4A1904"/>
<rect width="20.6155" height="20.6155" transform="matrix(0.727607 0.685994 -0.727607 0.685994 616 75)" fill="#4A1904"/>
<rect width="20.6155" height="20.6155" transform="matrix(0.727607 0.685994 -0.727607 0.685994 616 50)" fill="#4A1904"/>
<rect width="20.6155" height="20.6155" transform="matrix(0.727607 0.685994 -0.727607 0.685994 616 25)" fill="#4A1904"/>
<rect width="20.6155" height="20.6155" transform="matrix(0.727607 0.685994 -0.727607 0.685994 616 0)" fill="#4A1904"/>
<rect x="108.425" y="29" width="15.9099" height="282" fill="url(#paint1_linear_220_94)"/>
<rect width="20.6155" height="20.6155" transform="matrix(0.727607 0.685994 -0.727607 0.685994 116 275)" fill="#4A1904"/>
<rect width="20.6155" height="20.6155" transform="matrix(0.727607 0.685994 -0.727607 0.685994 116 250)" fill="#4A1904"/>
<rect width="20.6155" height="20.6155" transform="matrix(0.727607 0.685994 -0.727607 0.685994 116 225)" fill="#4A1904"/>
<rect width="20.6155" height="20.6155" transform="matrix(0.727607 0.685994 -0.727607 0.685994 116 200)" fill="#4A1904"/>
<rect width="20.6155" height="20.6155" transform="matrix(0.727607 0.685994 -0.727607 0.685994 116 175)" fill="#4A1904"/>
<rect width="20.6155" height="20.6155" transform="matrix(0.727607 0.685994 -0.727607 0.685994 116 150)" fill="#4A1904"/>
<rect width="20.6155" height="20.6155" transform="matrix(0.727607 0.685994 -0.727607 0.685994 116 125)" fill="#4A1904"/>
<rect width="20.6155" height="20.6155" transform="matrix(0.727607 0.685994 -0.727607 0.685994 116 100)" fill="#4A1904"/>
<rect width="20.6155" height="20.6155" transform="matrix(0.727607 0.685994 -0.727607 0.685994 116 75)" fill="#4A1904"/>
<rect width="20.6155" height="20.6155" transform="matrix(0.727607 0.685994 -0.727607 0.685994 116 50)" fill="#4A1904"/>
<rect width="20.6155" height="20.6155" transform="matrix(0.727607 0.685994 -0.727607 0.685994 116 25)" fill="#4A1904"/>
<rect width="20.6155" height="20.6155" transform="matrix(0.727607 0.685994 -0.727607 0.685994 116 0)" fill="#4A1904"/>
<rect y="306" width="700" height="140" rx="6" fill="#9C3E15"/>
<rect y="297" width="700" height="140" rx="6" fill="url(#paint2_linear_220_94)"/>
<rect x="1" y="371.829" width="65.093" height="16.5803" rx="8.29016" fill="#B24C20"/>
<rect x="78.1102" y="414.316" width="128.183" height="16.5803" rx="8.29016" fill="#D27953"/>
<rect x="395.564" y="370.793" width="84.1202" height="16.5803" rx="8.29016" fill="#D27953"/>
<rect x="573" y="382" width="123" height="17" rx="8.5" fill="#D27953"/>
<rect x="527.753" y="334.523" width="103.147" height="16.5803" rx="8.29016" fill="#D27953"/>
<rect x="184.262" y="342.813" width="128.183" height="16.5803" rx="8.29016" fill="#B7572F"/>
<rect x="630.9" y="323.124" width="65.093" height="16.5803" rx="8.29016" fill="#B7572F"/>
<rect x="7.00861" y="321.052" width="105.15" height="16.5803" rx="8.29016" fill="#B7572F"/>
<rect x="376.536" y="316.907" width="41.0587" height="16.5803" rx="8.29016" fill="#B24C20"/>
<rect x="121.172" y="377.01" width="41.0587" height="16.5803" rx="8.29016" fill="#641E00"/>
<rect x="306.436" y="406.026" width="128.183" height="16.5803" rx="8.29016" fill="#B24C20"/>
<rect x="541.773" y="373.902" width="128.183" height="16.5803" rx="8.29016" fill="#B24C20"/>
<defs>
<linearGradient id="paint0_linear_220_94" x1="616.38" y1="29" x2="616.38" y2="311" gradientUnits="userSpaceOnUse">
<stop stop-color="#5B2108"/>
<stop offset="1" stop-color="#471803"/>
</linearGradient>
<linearGradient id="paint1_linear_220_94" x1="116.38" y1="29" x2="116.38" y2="311" gradientUnits="userSpaceOnUse">
<stop stop-color="#5B2108"/>
<stop offset="1" stop-color="#471803"/>
</linearGradient>
<linearGradient id="paint2_linear_220_94" x1="350" y1="297" x2="350" y2="437" gradientUnits="userSpaceOnUse">
<stop stop-color="#CD6133"/>
<stop offset="1" stop-color="#C4582A"/>
</linearGradient>
</defs>
</svg>
