<svg width="175" height="200" viewBox="0 0 175 200" fill="none" xmlns="http://www.w3.org/2000/svg">
<path d="M22.3546 179.197C21.588 176.954 20.1698 172.021 20.6297 170.227C22.3546 172.843 26.3793 177.963 28.6791 177.515L29.254 171.909L34.4286 174.712V169.106L39.6032 171.909L40.7531 166.864L44.2028 167.985L44.7778 165.182H47.6526L46.5027 171.348L38.4533 175.833L30.9789 179.757L22.3546 179.197Z" fill="white"/>
<path fill-rule="evenodd" clip-rule="evenodd" d="M132.279 191.816C142.309 186.034 152.691 180.282 159.559 169.309C163.27 163.38 160.14 151.856 162.647 145.269C166.922 134.036 173.971 123.82 173.971 113.043C173.971 77.3738 149.797 50.1089 114.885 39.5309C110.08 38.0749 105.091 40.047 99.958 42.0758C95.8888 43.6842 91.7294 45.3283 87.5 45.3283C83.2705 45.3283 69.9515 36.9025 65.8824 35.2941C60.7495 33.2653 48.5554 43.8723 43.75 45.3283C8.83803 55.9063 8.72856 77.3738 8.72856 113.043C8.72856 125.626 3.13622 142.86 8.72856 156.1C23.891 152.715 47.1859 145.3 49.3919 135.611C54.8916 146.98 56.899 171.314 21.833 178.973C27.422 186.282 42.1961 187.667 49.3919 191.816C58.2097 196.899 59.8017 200.055 70.3584 198.362C75.9016 197.473 81.6334 196.554 87.5 196.554C93.3666 196.554 99.0984 197.473 104.642 198.362C115.198 200.055 123.462 196.899 132.279 191.816Z" fill="url(#paint0_linear_35_36)"/>
<path d="M33.6712 90.4569C33.6712 96.2065 25.2828 102.024 19.3513 102.024C13.4198 102.024 13.9814 96.2065 13.9814 90.4569C13.9814 84.7073 22.3698 73.6842 28.3013 73.6842C34.2327 73.6842 33.6712 84.7073 33.6712 90.4569Z" fill="black"/>
<path d="M9.03755 155.581C9.46532 157.295 11.0242 163.357 16.1574 170.04C15.5157 165.542 14.7457 156.16 16.799 154.617L20.6489 158.473L21.9322 152.689L26.4237 156.545L27.707 150.761L32.1985 153.975L33.4818 148.834L36.6901 150.761L38.615 145.749L9.03755 155.581Z" fill="white"/>
<path fill-rule="evenodd" clip-rule="evenodd" d="M131.213 46.261C128.992 52.6231 126.562 62.1813 128.917 66.0486C131.717 70.6478 138.639 72.1808 141.75 72.3725C144.472 73.139 150.267 75.4769 151.667 78.6964C151.993 79.4456 152.23 80.1575 152.491 80.9393C153.35 83.5167 154.462 86.8537 159.833 94.7935C163.416 100.09 167.976 97.7663 171.7 94.0505C165.439 73.6974 150.698 56.6221 131.213 46.261Z" fill="#776715"/>
<path fill-rule="evenodd" clip-rule="evenodd" d="M132.293 46.261C130.132 52.4534 127.767 61.7566 130.058 65.5207C132.783 69.9972 139.521 71.4893 142.549 71.6759C145.199 72.422 150.839 74.6975 152.201 77.831C152.518 78.5603 152.749 79.2532 153.003 80.0141C153.839 82.5228 154.922 85.7708 160.15 93.4988C163.637 98.6535 168.076 96.3923 171.7 92.7756C165.606 72.9655 151.258 56.3457 132.293 46.261Z" fill="#A08C22"/>
<path d="M74.6989 134.891C79.6263 126.862 87.6091 138.551 102.397 134.375C117.186 130.199 127.827 109.679 136.823 121.349C149.359 137.611 114.833 161.043 108.808 169.025C102.783 177.007 80.5706 171.537 74.1398 157.495C68.9129 146.081 69.7715 142.919 74.6989 134.891Z" fill="#A08C22"/>
<defs>
<linearGradient id="paint0_linear_35_36" x1="46.3236" y1="58.8235" x2="129.962" y2="199.947" gradientUnits="userSpaceOnUse">
<stop stop-color="#A25925"/>
<stop offset="1" stop-color="#8A331F"/>
</linearGradient>
</defs>
</svg>
