<svg width="170" height="196" viewBox="0 0 170 196" fill="none" xmlns="http://www.w3.org/2000/svg">
<path d="M21.7159 175.165C20.9712 172.973 19.5935 168.151 20.0403 166.397C21.7159 168.954 25.6256 173.959 27.8597 173.521L28.4182 168.041L33.445 170.781V165.301L38.4717 168.041L39.5888 163.109L42.9399 164.205L43.4985 161.466H46.2911L45.174 167.493L37.3547 171.877L30.0938 175.713L21.7159 175.165Z" fill="white"/>
<path d="M88.4319 6.19127L102.958 0L88.4319 50.6559H80.6103L88.4319 6.19127Z" fill="#2F1717"/>
<path fill-rule="evenodd" clip-rule="evenodd" d="M128.5 187.5C138.243 181.848 148.329 176.226 155 165.5C158.605 159.704 155.565 148.439 158 142C162.153 131.02 169 121.034 169 110.5C169 75.6329 145.518 48.9814 111.603 38.6414C106.935 37.2182 102.088 39.1459 97.102 41.1291C93.1491 42.7013 89.1086 44.3084 85 44.3084C80.8914 44.3084 67.9529 36.0722 64 34.5C59.0138 32.5168 47.1681 42.8852 42.5 44.3084C8.58551 54.6484 8.47917 75.6329 8.47917 110.5C8.47917 122.8 3.04661 139.646 8.47917 152.588C23.2084 149.279 45.8377 142.031 47.9807 132.56C53.3233 143.673 55.2733 167.46 21.2092 174.946C26.6385 182.09 40.9905 183.445 47.9807 187.5C56.5466 192.469 58.0931 195.554 68.3482 193.899C73.733 193.03 79.301 192.132 85 192.132C90.699 192.132 96.267 193.03 101.652 193.899C111.907 195.554 119.934 192.469 128.5 187.5Z" fill="url(#paint0_linear_32_32)"/>
<path d="M106.563 20.7954C107.667 21.5934 107.668 23.2378 106.564 24.0366L92.6586 34.1009L92.6519 14.6552C92.6513 13.0231 94.5005 12.0775 95.8234 13.0336L106.563 20.7954Z" fill="#402009"/>
<path d="M32.7092 88.4216C32.7092 94.0419 24.5604 99.7287 18.7984 99.7287C13.0364 99.7287 13.5819 94.0419 13.5819 88.4216C13.5819 82.8013 21.7306 72.0263 27.4927 72.0263C33.2547 72.0263 32.7092 82.8013 32.7092 88.4216Z" fill="black"/>
<path d="M8.77936 152.081C9.1949 153.756 10.7092 159.682 15.6958 166.215C15.0724 161.817 14.3245 152.646 16.3191 151.138L20.059 154.907L21.3056 149.254L25.6688 153.023L26.9154 147.369L31.2786 150.51L32.5252 145.485L35.6418 147.369L37.5118 142.47L8.77936 152.081Z" fill="white"/>
<path fill-rule="evenodd" clip-rule="evenodd" d="M127.464 45.2202C125.307 51.4391 122.946 60.7822 125.233 64.5625C127.953 69.0582 134.678 70.5568 137.7 70.7441C140.344 71.4934 145.973 73.7787 147.333 76.9257C147.65 77.6581 147.88 78.354 148.134 79.1182C148.968 81.6376 150.049 84.8995 155.267 92.6607C158.747 97.8375 163.177 95.5666 166.794 91.9344C160.712 72.0392 146.392 55.3481 127.464 45.2202Z" fill="#776715"/>
<path fill-rule="evenodd" clip-rule="evenodd" d="M128.513 45.2202C126.414 51.2732 124.116 60.367 126.342 64.0465C128.99 68.4222 135.535 69.8808 138.476 70.0632C141.05 70.7925 146.529 73.0168 147.853 76.0798C148.161 76.7927 148.385 77.47 148.632 78.2138C149.444 80.666 150.496 83.8409 155.574 91.3951C158.962 96.4338 163.273 94.2234 166.795 90.6882C160.874 71.3238 146.937 55.0779 128.513 45.2202Z" fill="#A08C22"/>
<path d="M72.5646 131.856C77.3512 124.008 85.106 135.434 99.4718 131.352C113.838 127.269 124.175 107.211 132.914 118.619C145.091 134.515 111.552 157.419 105.7 165.222C99.8467 173.025 78.2685 167.677 72.0215 153.951C66.9439 142.794 67.778 139.703 72.5646 131.856Z" fill="#A08C22"/>
<defs>
<linearGradient id="paint0_linear_32_32" x1="45" y1="57.5" x2="127" y2="195" gradientUnits="userSpaceOnUse">
<stop stop-color="#A25925"/>
<stop offset="1" stop-color="#8A331F"/>
</linearGradient>
</defs>
</svg>
