<svg width="1000" height="600" viewBox="0 0 1000 600" fill="none" xmlns="http://www.w3.org/2000/svg">
<path d="M142.032 94.932C148.566 77.7396 172.888 77.7397 179.422 94.9322L311.15 441.512C316.124 454.6 306.456 468.617 292.454 468.617H28.9976C14.9956 468.617 5.32776 454.6 10.3025 441.511L142.032 94.932Z" fill="#039DBB"/>
<path d="M368.144 31.1098C375.783 17.4857 395.393 17.4857 403.033 31.1098L621.223 420.218C628.698 433.55 619.063 450 603.778 450H167.399C152.114 450 142.478 433.55 149.954 420.218L368.144 31.1098Z" fill="#039DBB"/>
<path d="M566.645 157.002C574.243 150.185 585.757 150.185 593.355 157.002L904.841 436.432C918.497 448.682 909.831 471.319 891.486 471.319H268.514C250.169 471.319 241.503 448.682 255.159 436.432L566.645 157.002Z" fill="#039DBB"/>
</svg>
