<svg width="95" height="90" viewBox="0 0 95 90" fill="none" xmlns="http://www.w3.org/2000/svg">
<rect width="77.8147" height="5.63875" transform="matrix(0.707606 -0.706607 0.707606 0.706607 19.6767 76.9822)" fill="url(#paint0_linear_255_454)"/>
<path d="M26.4598 74.1931L22.8687 89.7322L19.4373 81.2056L10.8987 77.7791L26.4598 74.1931Z" fill="#D9D9D9"/>
<path d="M87.5069 13.2321L78.3938 29.2335L71.4829 22.3324L87.5069 13.2321Z" fill="#D9D9D9"/>
<rect width="84.9128" height="6.1531" transform="matrix(0.707606 -0.706607 0.707606 0.706607 9.57874 76.0869)" fill="url(#paint1_linear_255_454)"/>
<path d="M16.9805 73.0435L13.0619 90L9.31749 80.6956L-1.467e-05 76.9565L16.9805 73.0435Z" fill="#D9D9D9"/>
<path d="M83.5963 6.52173L73.6519 23.9827L66.1106 16.4521L83.5963 6.52173Z" fill="#D9D9D9"/>
<rect x="73.3862" y="53.2052" width="8.04233" height="35.1355" rx="2" fill="#00A9AB"/>
<rect x="95" y="66.7574" width="8.03097" height="35.1852" rx="2" transform="rotate(90 95 66.7574)" fill="#00A9AB"/>
<defs>
<linearGradient id="paint0_linear_255_454" x1="76.1231" y1="4.33024" x2="10.9956" y2="4.33025" gradientUnits="userSpaceOnUse">
<stop stop-color="#725743"/>
<stop offset="1" stop-color="#554031"/>
</linearGradient>
<linearGradient id="paint1_linear_255_454" x1="83.0669" y1="4.72523" x2="11.9985" y2="4.72524" gradientUnits="userSpaceOnUse">
<stop stop-color="#745D4C"/>
<stop offset="1" stop-color="#644E3E"/>
</linearGradient>
</defs>
</svg>
