<svg width="150" height="155" viewBox="0 0 150 155" fill="none" xmlns="http://www.w3.org/2000/svg">
<path d="M0 13.0392C0 7.51636 4.47715 3.03922 10 3.03922H140C145.523 3.03922 150 7.51637 150 13.0392V145C150 150.523 145.523 155 140 155H10C4.47715 155 0 150.523 0 145V13.0392Z" fill="#927147"/>
<path d="M0 9.99999C0 4.47714 4.47715 0 10 0H140C145.523 0 150 4.47715 150 10V141.961C150 147.484 145.523 151.961 140 151.961H10C4.47715 151.961 0 147.484 0 141.961V9.99999Z" fill="#DEB887"/>
<rect x="4" y="49.6405" width="57" height="8.10458" rx="4.05229" fill="#C79D66"/>
<rect x="61" y="65.8497" width="36" height="8.10458" rx="4.05229" fill="#D7AB73"/>
<rect x="10" y="100.294" width="36" height="8.10458" rx="4.05229" fill="#C79D66"/>
<rect x="84" y="27.3529" width="64" height="8.10458" rx="4.05229" fill="#D7AB73"/>
<rect x="114" y="96.2418" width="34" height="8.10458" rx="4.05229" fill="#E8BF8B"/>
<rect x="5" y="114.477" width="140" height="30.3922" rx="6" fill="#926934"/>
<rect x="5" y="115.49" width="140" height="30.3922" rx="6" fill="#B68F5C"/>
</svg>
