<svg width="50" height="52" viewBox="0 0 50 52" fill="none" xmlns="http://www.w3.org/2000/svg">
<rect y="2" width="50" height="50" rx="10" fill="#927147"/>
<rect width="50" height="50" rx="10" fill="#DEB887"/>
<path fill-rule="evenodd" clip-rule="evenodd" d="M22.0001 5C20.8955 5 20.0001 5.89543 20.0001 7V20.0092L6.99094 20.0331C5.88637 20.0352 4.99259 20.9323 4.99463 22.0368L5.00566 28.0368C5.00769 29.1414 5.90477 30.0352 7.00934 30.0331L20.0001 30.0092V43C20.0001 44.1046 20.8955 45 22.0001 45H28.0001C29.1047 45 30.0001 44.1046 30.0001 43V29.9908L43.0093 29.9669C44.1138 29.9648 45.0076 29.0678 45.0056 27.9632L44.9946 21.9632C44.9925 20.8586 44.0954 19.9649 42.9909 19.9669L30.0001 19.9908V7C30.0001 5.89543 29.1047 5 28.0001 5H22.0001Z" fill="#A58355"/>
</svg>
