<svg width="281" height="214" viewBox="0 0 281 214" fill="none" xmlns="http://www.w3.org/2000/svg">
<path d="M131.5 18.5L130 23L135.5 24L134 27.5L139 30.5L135.5 33.5L141.5 36.5L139 40L144.5 42L141.5 45.5L146.5 46.5L143.5 50L148 51.5L144.5 55.5L150 57.5L146.5 59.5L151.444 62.1965L155 51.5L149 40L131.5 18.5Z" fill="#3C9934"/>
<path d="M152.766 74.205L149 77.5L153.369 79.6845L152.766 74.205Z" fill="#3C9934"/>
<path d="M151.976 67.0285L149 70.5L152.716 73.7513L151.976 67.0285Z" fill="#3C9934"/>
<path d="M151.511 62.8058L148 65L151.971 66.9854L151.511 62.8058Z" fill="#3C9934"/>
<path d="M153.463 80.5372L151 83L153.893 84.4466L153.463 80.5372Z" fill="#3C9934"/>
<path d="M154.021 85.6116L151 87.5L154 89.5L151 92L155 94.5L154.021 85.6116Z" fill="#3C9934"/>
<path d="M150.5 9.5H143.5L164.704 88H176.5L167 81.5L176.5 80L169 75L176.5 71L169 67L176.5 62.5L169 59L174.5 53.5L167 50.5L171.5 45H165.5L169 39L163 36.5L165.5 33L161 30V23H153L155.5 16H149L150.5 9.5Z" fill="#2B7D24"/>
<path d="M124 11.4908C145.959 34.8979 176.701 99.9697 124 173C208.322 80.0524 164.99 18.9385 132.784 0L124 11.4908Z" fill="url(#paint0_radial_14_59)"/>
<defs>
<radialGradient id="paint0_radial_14_59" cx="0" cy="0" r="1" gradientUnits="userSpaceOnUse" gradientTransform="translate(148.887 75.9668) rotate(90.2283) scale(97.034 27.4835)">
<stop stop-color="#40A038"/>
<stop offset="1" stop-color="#277520"/>
</radialGradient>
</defs>
</svg>
