<svg width="129" height="130" viewBox="0 0 129 130" fill="none" xmlns="http://www.w3.org/2000/svg">
<path fill-rule="evenodd" clip-rule="evenodd" d="M59.8454 130C92.897 130 119.691 103.274 119.691 70.3061C119.691 37.3381 92.897 10.6122 59.8454 10.6122C26.7937 10.6122 0 37.3381 0 70.3061C0 76.9581 1.09081 83.3559 3.10373 89.3314L62.1486 79.6872L25.3565 119.096C35.1047 125.965 47.0026 130 59.8454 130Z" fill="url(#paint0_linear_13_41)"/>
<ellipse cx="92.4278" cy="97.5" rx="5.98454" ry="5.96939" fill="#D9D9D9"/>
<ellipse cx="99.0773" cy="65.6633" rx="4.65464" ry="4.64286" fill="#D9D9D9"/>
<ellipse cx="85.7784" cy="32.5" rx="7.31443" ry="7.29592" fill="#D9D9D9"/>
<path d="M47.2113 0L36.5722 17.9082L65.8299 11.2755L93.0928 21.8878L113.706 44.4388L117.031 32.5H106.392L110.381 14.5918L96.4175 21.8878V5.30612L83.7835 14.5918L81.7887 1.32653L71.8144 11.2755L65.8299 0L53.8608 11.2755L47.2113 0Z" fill="url(#paint1_radial_13_41)"/>
<path d="M126.34 48.4184L113.706 44.4388L119.026 74.949L129 67.6531L117.031 59.0306L126.34 48.4184Z" fill="url(#paint2_radial_13_41)"/>
<ellipse cx="61.8402" cy="63.0102" rx="3.32474" ry="3.31633" fill="#D9D9D9"/>
<ellipse cx="35.2423" cy="27.1939" rx="4.65464" ry="4.64286" fill="#D9D9D9"/>
<ellipse cx="50.5361" cy="119.388" rx="2.65979" ry="2.65306" fill="#D9D9D9"/>
<ellipse cx="15.9588" cy="54.3878" rx="7.97938" ry="7.95918" fill="black"/>
<path d="M3.32474 88.8776L12.7996 103.469C12.2123 98.5726 12.0948 88.3783 16.3236 86.7757C20.5524 85.1731 9.19804 87.5421 3.32474 88.8776Z" fill="white"/>
<path d="M25.968 120.216L18.0365 104.735C21.9943 107.691 30.7865 112.889 34.2923 110.038C37.7981 107.186 30.0641 115.81 25.968 120.216Z" fill="white"/>
<path d="M19.9485 94.1837L15.9588 86.8878L22.6083 85.8405L29.9227 84.6885L35.2423 83.8507L42.2709 82.7437L42.5567 82.2449L42.9496 82.6368L53.8608 80.9184L52.5309 85.5612L48.5412 82.2449L45.8815 85.5612L42.9496 82.6368L42.2709 82.7437L39.8969 86.8878L35.2423 83.8507L32.5825 90.2041L29.9227 84.6885L26.5979 94.1837L22.6083 85.8405L19.9485 94.1837Z" fill="white"/>
<path d="M29.7744 103.58L34.1141 110.675L47.1983 96.2183L47.7869 96.3385L47.6273 95.7444L59.8454 82.2449L54.5258 81.5816L54.4363 84.8504L50.2271 85.4898L51.4441 90.02L46.0831 89.9962L47.6273 95.7444L47.1983 96.2183L39.5466 94.6565L43.3995 99.9388L33.0992 97.8363L38.5905 105.594L29.7744 103.58Z" fill="white"/>
<defs>
<linearGradient id="paint0_linear_13_41" x1="59.8454" y1="37.1429" x2="59.8454" y2="130" gradientUnits="userSpaceOnUse">
<stop stop-color="#EB2F2F"/>
<stop offset="1" stop-color="#C01010"/>
</linearGradient>
<radialGradient id="paint1_radial_13_41" cx="0" cy="0" r="1" gradientUnits="userSpaceOnUse" gradientTransform="translate(113.041 -10.6122) rotate(111.517) scale(63.4528 78.1974)">
<stop stop-color="#890404"/>
<stop offset="1" stop-color="#E92E2E"/>
</radialGradient>
<radialGradient id="paint2_radial_13_41" cx="0" cy="0" r="1" gradientUnits="userSpaceOnUse" gradientTransform="translate(113.041 -10.6122) rotate(111.517) scale(63.4528 78.1974)">
<stop stop-color="#890404"/>
<stop offset="1" stop-color="#E92E2E"/>
</radialGradient>
</defs>
</svg>
