<svg width="69" height="46" viewBox="0 0 69 46" fill="none" xmlns="http://www.w3.org/2000/svg">
<path fill-rule="evenodd" clip-rule="evenodd" d="M35.5191 3.14853C35.5191 3.24444 35.5132 3.33905 35.5016 3.43206L35.5356 3.42391C35.5247 3.33352 35.5191 3.24164 35.5191 3.14853ZM56.9766 4.85511C56.7787 4.77165 56.5807 4.69045 56.3826 4.61148C56.294 3.34128 55.1624 2.33665 53.7796 2.33665C52.9933 2.33665 52.2882 2.66147 51.81 3.17524C51.596 3.12542 51.382 3.07795 51.1681 3.03278C51.1033 1.74136 49.9615 0.712891 48.5623 0.712891C47.41 0.712891 46.4321 1.41052 46.0869 2.37812C45.9966 2.37363 45.9063 2.36952 45.816 2.36577C45.4669 1.40459 44.4925 0.712891 43.345 0.712891C42.1374 0.712891 41.1214 1.47909 40.8243 2.51925C40.7673 2.52499 40.7104 2.53087 40.6534 2.53688C40.3628 1.48776 39.3422 0.712891 38.1278 0.712891C36.687 0.712891 35.5191 1.80337 35.5191 3.14853C35.5191 1.80337 34.3512 0.712891 32.9105 0.712891C31.7075 0.712891 30.6947 1.47319 30.3932 2.50722C30.0958 2.39715 29.7716 2.33665 29.4323 2.33665C28.2293 2.33665 27.2165 3.09695 26.915 4.13098C26.6176 4.02091 26.2934 3.96042 25.9541 3.96042C24.7511 3.96042 23.7383 4.72072 23.4368 5.75475C23.1395 5.64467 22.8153 5.58418 22.4759 5.58418C21.0352 5.58418 19.8673 6.67465 19.8673 8.01982C19.8673 8.3952 19.9582 8.75075 20.1207 9.0683C19.7806 8.91662 19.3998 8.8317 18.9977 8.8317C17.557 8.8317 16.3891 9.92218 16.3891 11.2673C16.3891 11.6243 16.4713 11.9634 16.6191 12.2689C11.4766 15.8379 7.22602 19.7834 4.34658 23.0422C0.578551 35.2204 -3.47933 55.6798 10.4334 40.0917C18.1145 31.4856 34.277 27.1557 47.5331 23.6045C62.6376 19.5581 73.9686 16.5225 64.6788 9.32367C64.9352 8.94669 65.0837 8.49945 65.0837 8.01982C65.0837 6.67465 63.9158 5.58418 62.4751 5.58418C62.1357 5.58418 61.8115 5.64467 61.5141 5.75475C61.2127 4.72072 60.1999 3.96042 58.9969 3.96042C58.1823 3.96042 57.455 4.309 56.9766 4.85511Z" fill="url(#paint0_linear_302_367)"/>
<path d="M18.1284 11.8017C23.6355 9.90732 32.0412 8.55419 21.6066 18.2968C28.2731 18.2968 37.7802 19.9205 22.4762 26.4156C27.6934 25.6037 34.9976 25.4413 22.4762 31.2869" stroke="#CCCCCC" stroke-width="0.5"/>
<path d="M37.2584 25.8812C39.3453 24.5821 32.9107 26.1518 29.4325 26.693C51.6929 19.5485 38.9975 19.3861 30.302 20.198C54.6493 6.55838 38.4178 8.56105 26.8239 11.2673C31.1716 9.10229 38.128 4.12274 31.1716 1.52472" stroke="#CCCCCC" stroke-width="0.5"/>
<path d="M33.7374 13.2129C32.5374 11.6129 27.2374 12.5462 24.7374 13.2129C39.9374 6.81287 31.4041 6.21287 25.2374 6.71287C28.4041 5.71288 34.0374 3.41289 31.2374 2.21289" stroke="#CCCCCC" stroke-width="0.5"/>
<path d="M24.7374 15.7129C37.5374 13.7129 33.0708 17.2129 29.2374 19.2129C33.5708 20.5462 39.5374 23.3129 28.7374 23.7129C31.0708 23.7129 35.4374 24.0129 34.2374 25.2129" stroke="#A9B4B6" stroke-width="0.5"/>
<defs>
<linearGradient id="paint0_linear_302_367" x1="65.0839" y1="12.8911" x2="7.23045" y2="26.7633" gradientUnits="userSpaceOnUse">
<stop stop-color="#E7E7E7" stop-opacity="0.84"/>
<stop offset="1" stop-color="#E7E7E7"/>
</linearGradient>
</defs>
</svg>
