<svg width="55" height="68" viewBox="0 0 55 68" fill="none" xmlns="http://www.w3.org/2000/svg">
<path d="M36.3895 21.9208C54.4761 21.2713 54.6497 43.3004 52.041 52.7723L25.9546 54.396C18.1286 52.5016 2.12957 57.8059 0.738292 55.2079C0.0695509 53.9592 2.23281 47.245 5.95554 41.406C11.9139 32.0603 22.4749 22.4205 36.3895 21.9208Z" fill="#A98E06"/>
<path d="M38.2547 21.1253C56.3412 20.4758 55.5198 41.6766 52.9111 51.1485L29.4336 57.6435C21.6077 55.7491 3.86868 52.1228 2.47741 49.5248C0.738312 46.2773 15.6464 21.9372 38.2547 21.1253Z" fill="url(#paint0_linear_302_366)"/>
<path d="M31.5133 51.2109C32.0419 47.0891 38.9983 44.6535 45.0851 47.0891" stroke="#A98E06" stroke-width="0.5"/>
<path d="M29.4656 48.8036C29.9942 44.6819 36.9506 42.2463 43.0374 44.6819" stroke="#A98E06" stroke-width="0.5"/>
<path d="M27.7264 45.5562C28.255 41.4344 35.2114 38.9988 41.2982 41.4344" stroke="#A98E06" stroke-width="0.5"/>
<path fill-rule="evenodd" clip-rule="evenodd" d="M52.4914 51.4925L29.4336 57.6435C29.0625 57.5537 28.6692 57.46 28.2563 57.3627C31.9229 52.0628 37.3236 48.7129 43.346 48.7129C46.6414 48.7129 49.7506 49.7159 52.4914 51.4925Z" fill="#A98E06"/>
<path d="M3.34692 61.703L0.738281 55.2079L12.0424 51.9604L26.8247 56.8317C27.5203 57.4812 21.8973 64.1386 18.9988 67.3861C21.7813 63.4891 18.4191 57.1023 16.3901 54.396L13.7815 60.0792L11.1728 55.2079L8.5642 60.8911L5.08601 56.0198L3.34692 61.703Z" fill="#D9D9D9"/>
<path d="M19.8683 29.2277C18.9987 23.2739 14.651 11.3663 4.21643 11.3663" stroke="#434343"/>
<path d="M37.2593 24.3564C36.3897 17.3201 32.042 3.2475 21.6074 3.2475" stroke="#434343"/>
<ellipse cx="5.08594" cy="10.5545" rx="2.60864" ry="2.43564" fill="#434343"/>
<ellipse cx="22.4769" cy="2.43564" rx="2.60864" ry="2.43564" fill="#434343"/>
<defs>
<linearGradient id="paint0_linear_302_366" x1="28.327" y1="21.1107" x2="28.327" y2="57.6435" gradientUnits="userSpaceOnUse">
<stop stop-color="#EDCC20"/>
<stop offset="1" stop-color="#DBBA10"/>
</linearGradient>
</defs>
</svg>
