<svg width="164" height="164" viewBox="0 0 164 164" fill="none" xmlns="http://www.w3.org/2000/svg">
<path d="M25.6507 141.287L80.3653 89.9633L96.1649 110.54L25.6507 141.287Z" fill="#D9D9D9"/>
<ellipse cx="77.9535" cy="107.061" rx="20.1453" ry="17.8024" fill="url(#paint0_linear_302_495)"/>
<path fill-rule="evenodd" clip-rule="evenodd" d="M147.752 69.5778C147.912 69.6702 148.072 69.7642 148.231 69.8598C148.381 69.8348 148.535 69.8218 148.692 69.8218C150.024 69.8218 151.123 70.7536 151.281 71.9569C151.753 72.3256 152.217 72.7113 152.674 73.1147C153.743 73.3097 154.578 74.1139 154.748 75.1241C155.054 75.45 155.357 75.7851 155.655 76.1297C155.711 76.1941 155.766 76.2583 155.821 76.3221C157.181 76.4049 158.258 77.4614 158.258 78.7525C158.258 78.9641 158.229 79.1694 158.174 79.3652C158.243 79.467 158.31 79.5677 158.374 79.6673C158.613 79.6004 158.865 79.5644 159.127 79.5644C160.568 79.5644 161.736 80.6549 161.736 82C161.736 83.0285 161.053 83.908 160.088 84.2652C159.837 89.0696 149.77 88.5707 137.179 87.9467C123.408 87.2643 106.617 86.4322 96.3479 92.2265C77.7483 102.722 88.7353 84.619 96.5538 74.2557C106.57 68.5405 126.925 61.2685 143.222 67.4381C143.7 66.9098 144.415 66.5743 145.214 66.5743C146.655 66.5743 147.823 67.6648 147.823 69.0099C147.823 69.2055 147.798 69.3956 147.752 69.5778Z" fill="url(#paint1_linear_302_495)"/>
<path d="M94.2156 76.0842C108.216 72.0842 101.049 71.7508 95.7156 72.0842C99.5489 70.7508 105.916 67.9842 100.716 67.5842" stroke="#A9B4B6" stroke-width="0.5"/>
<path d="M106.716 65.5842C109.116 65.9842 105.049 67.7508 102.716 68.5842C109.382 67.9175 118.716 67.8842 102.716 73.0842C106.382 72.7508 113.016 72.5842 110.216 74.5842" stroke="#A9B4B6" stroke-width="0.5"/>
<path d="M77.3895 21.9208C95.4761 21.2713 95.6497 43.3004 93.041 52.7723L66.9546 54.396C59.1286 52.5016 43.1296 57.8059 41.7383 55.2079C41.0696 53.9592 43.2328 47.245 46.9555 41.406C52.9139 32.0603 63.4749 22.4205 77.3895 21.9208Z" fill="#A98E06"/>
<path d="M79.2547 21.1253C97.3412 20.4758 96.5198 41.6766 93.9111 51.1485L70.4336 57.6435C62.6077 55.7491 44.8687 52.1228 43.4774 49.5248C41.7383 46.2773 56.6464 21.9372 79.2547 21.1253Z" fill="url(#paint2_linear_302_495)"/>
<path d="M72.5133 51.2109C73.0419 47.0891 79.9983 44.6535 86.0851 47.0891" stroke="#A98E06" stroke-width="0.5"/>
<path d="M70.4656 48.8036C70.9942 44.6819 77.9506 42.2463 84.0374 44.6819" stroke="#A98E06" stroke-width="0.5"/>
<path d="M68.7264 45.5562C69.255 41.4344 76.2114 38.9988 82.2982 41.4344" stroke="#A98E06" stroke-width="0.5"/>
<path fill-rule="evenodd" clip-rule="evenodd" d="M93.4914 51.4925L70.4336 57.6435C70.0625 57.5537 69.6692 57.46 69.2563 57.3627C72.9229 52.0628 78.3236 48.7129 84.346 48.7129C87.6414 48.7129 90.7506 49.7159 93.4914 51.4925Z" fill="#A98E06"/>
<path d="M44.3469 61.703L41.7383 55.2079L53.0424 51.9604L67.8247 56.8317C68.5203 57.4812 62.8973 64.1386 59.9988 67.3861C62.7813 63.4891 59.4191 57.1023 57.3901 54.396L54.7815 60.0792L52.1728 55.2079L49.5642 60.8911L46.086 56.0198L44.3469 61.703Z" fill="#D9D9D9"/>
<path d="M60.8683 29.2277C59.9987 23.2739 55.651 11.3663 45.2164 11.3663" stroke="#434343"/>
<path d="M78.2593 24.3564C77.3897 17.3201 73.042 3.2475 62.6074 3.2475" stroke="#434343"/>
<ellipse cx="46.0859" cy="10.5545" rx="2.60864" ry="2.43564" fill="#434343"/>
<ellipse cx="63.4769" cy="2.43564" rx="2.60864" ry="2.43564" fill="#434343"/>
<path fill-rule="evenodd" clip-rule="evenodd" d="M116.519 51.1485C116.519 51.2444 116.513 51.339 116.502 51.4321L116.536 51.4239C116.525 51.3335 116.519 51.2416 116.519 51.1485ZM137.977 52.8551C137.779 52.7717 137.581 52.6904 137.383 52.6115C137.294 51.3413 136.162 50.3367 134.78 50.3367C133.993 50.3367 133.288 50.6615 132.81 51.1752C132.596 51.1254 132.382 51.0779 132.168 51.0328C132.103 49.7414 130.961 48.7129 129.562 48.7129C128.41 48.7129 127.432 49.4105 127.087 50.3781C126.997 50.3736 126.906 50.3695 126.816 50.3658C126.467 49.4046 125.492 48.7129 124.345 48.7129C123.137 48.7129 122.121 49.4791 121.824 50.5192C121.767 50.525 121.71 50.5309 121.653 50.5369C121.363 49.4878 120.342 48.7129 119.128 48.7129C117.687 48.7129 116.519 49.8034 116.519 51.1485C116.519 49.8034 115.351 48.7129 113.91 48.7129C112.707 48.7129 111.695 49.4732 111.393 50.5072C111.096 50.3972 110.772 50.3367 110.432 50.3367C109.229 50.3367 108.216 51.097 107.915 52.131C107.618 52.0209 107.293 51.9604 106.954 51.9604C105.751 51.9604 104.738 52.7207 104.437 53.7547C104.139 53.6447 103.815 53.5842 103.476 53.5842C102.035 53.5842 100.867 54.6747 100.867 56.0198C100.867 56.3952 100.958 56.7507 101.121 57.0683C100.781 56.9166 100.4 56.8317 99.9977 56.8317C98.557 56.8317 97.3891 57.9222 97.3891 59.2673C97.3891 59.6243 97.4713 59.9634 97.6191 60.2689C92.4766 63.8379 88.226 67.7834 85.3466 71.0422C81.5786 83.2204 77.5207 103.68 91.4334 88.0917C99.1145 79.4856 115.277 75.1557 128.533 71.6045C143.638 67.5581 154.969 64.5225 145.679 57.3237C145.935 56.9467 146.084 56.4994 146.084 56.0198C146.084 54.6747 144.916 53.5842 143.475 53.5842C143.136 53.5842 142.812 53.6447 142.514 53.7547C142.213 52.7207 141.2 51.9604 139.997 51.9604C139.182 51.9604 138.455 52.309 137.977 52.8551Z" fill="url(#paint3_linear_302_495)"/>
<path d="M99.1284 59.8017C104.636 57.9073 113.041 56.5542 102.607 66.2968C109.273 66.2968 118.78 67.9205 103.476 74.4156C108.693 73.6037 115.998 73.4413 103.476 79.2869" stroke="#CCCCCC" stroke-width="0.5"/>
<path d="M118.258 73.8812C120.345 72.5821 113.911 74.1518 110.432 74.693C132.693 67.5485 119.998 67.3861 111.302 68.198C135.649 54.5584 119.418 56.561 107.824 59.2673C112.172 57.1023 119.128 52.1227 112.172 49.5247" stroke="#CCCCCC" stroke-width="0.5"/>
<path d="M114.737 61.2129C113.537 59.6129 108.237 60.5462 105.737 61.2129C120.937 54.8129 112.404 54.2129 106.237 54.7129C109.404 53.7129 115.037 51.4129 112.237 50.2129" stroke="#CCCCCC" stroke-width="0.5"/>
<path d="M105.737 63.7129C118.537 61.7129 114.071 65.2129 110.237 67.2129C114.571 68.5462 120.537 71.3129 109.737 71.7129C112.071 71.7129 116.437 72.0129 115.237 73.2129" stroke="#A9B4B6" stroke-width="0.5"/>
<ellipse cx="84.346" cy="75.5049" rx="19.9996" ry="25.1683" fill="#434343"/>
<defs>
<linearGradient id="paint0_linear_302_495" x1="77.9535" y1="89.2587" x2="77.9535" y2="124.864" gradientUnits="userSpaceOnUse">
<stop stop-color="#DFBF1B"/>
<stop offset="1" stop-color="#C7A90F"/>
</linearGradient>
<linearGradient id="paint1_linear_302_495" x1="155.649" y1="79.5644" x2="97.4064" y2="82.3575" gradientUnits="userSpaceOnUse">
<stop stop-color="#D9D9D9" stop-opacity="0.71"/>
<stop offset="1" stop-color="#D9D9D9"/>
</linearGradient>
<linearGradient id="paint2_linear_302_495" x1="69.327" y1="21.1107" x2="69.327" y2="57.6435" gradientUnits="userSpaceOnUse">
<stop stop-color="#EDCC20"/>
<stop offset="1" stop-color="#DBBA10"/>
</linearGradient>
<linearGradient id="paint3_linear_302_495" x1="146.084" y1="60.8911" x2="88.2305" y2="74.7633" gradientUnits="userSpaceOnUse">
<stop stop-color="#E7E7E7" stop-opacity="0.84"/>
<stop offset="1" stop-color="#E7E7E7"/>
</linearGradient>
</defs>
</svg>
