<svg width="79" height="63" viewBox="0 0 79 63" fill="none" xmlns="http://www.w3.org/2000/svg">
<path fill-rule="evenodd" clip-rule="evenodd" d="M62.7517 16.5778C62.9121 16.6702 63.0719 16.7642 63.2311 16.8598C63.3808 16.8348 63.535 16.8218 63.6925 16.8218C65.0242 16.8218 66.1229 17.7536 66.2815 18.9569C66.7528 19.3256 67.2172 19.7113 67.6741 20.1147C68.7427 20.3097 69.5777 21.1139 69.7476 22.1241C70.0544 22.45 70.357 22.7851 70.6553 23.1297C70.7111 23.1941 70.7664 23.2583 70.821 23.3221C72.1815 23.4049 73.2575 24.4614 73.2575 25.7525C73.2575 25.9641 73.2286 26.1694 73.1743 26.3652C73.243 26.467 73.3097 26.5677 73.3745 26.6673C73.6128 26.6004 73.8654 26.5644 74.1271 26.5644C75.5678 26.5644 76.7357 27.6549 76.7357 29C76.7357 30.0285 76.053 30.908 75.0877 31.2652C74.8366 36.0696 64.7698 35.5707 52.1791 34.9467C38.4076 34.2643 21.6166 33.4322 11.3479 39.2265C-7.25165 49.7217 3.73535 31.619 11.5538 21.2557C21.5701 15.5405 41.9255 8.26852 58.2215 14.4381C58.7 13.9098 59.4152 13.5743 60.2143 13.5743C61.655 13.5743 62.823 14.6648 62.823 16.0099C62.823 16.2055 62.7983 16.3956 62.7517 16.5778Z" fill="url(#paint0_linear_302_365)"/>
<path d="M9.21558 23.0842C23.2156 19.0842 16.0489 18.7508 10.7156 19.0842C14.5489 17.7508 20.9156 14.9842 15.7156 14.5842" stroke="#A9B4B6" stroke-width="0.5"/>
<path d="M21.7156 12.5842C24.1156 12.9842 20.0489 14.7508 17.7156 15.5842C24.3822 14.9175 33.7156 14.8842 17.7156 20.0842C21.3822 19.7508 28.0156 19.5842 25.2156 21.5842" stroke="#A9B4B6" stroke-width="0.5"/>
<defs>
<linearGradient id="paint0_linear_302_365" x1="70.6489" y1="26.5644" x2="12.4064" y2="29.3575" gradientUnits="userSpaceOnUse">
<stop stop-color="#D9D9D9" stop-opacity="0.71"/>
<stop offset="1" stop-color="#D9D9D9"/>
</linearGradient>
</defs>
</svg>
