<svg width="160" height="160" viewBox="0 0 160 160" fill="none" xmlns="http://www.w3.org/2000/svg">
<circle cx="80" cy="80" r="80" fill="#D6CB91"/>
<path fill-rule="evenodd" clip-rule="evenodd" d="M46 62C46 74.0194 38.1783 82 30.5 82C22.8217 82 15 74.0194 15 62C15 49.9806 22.8217 42 30.5 42C38.1783 42 46 49.9806 46 62ZM51 62C51 75.8071 41.8218 87 30.5 87C19.1782 87 10 75.8071 10 62C10 48.1929 19.1782 37 30.5 37C41.8218 37 51 48.1929 51 62ZM128 131C128 131.308 127.689 132.732 124.632 134.372C121.782 135.901 117.502 137 112.5 137C107.498 137 103.218 135.901 100.368 134.372C97.3112 132.732 97 131.308 97 131C97 130.692 97.3112 129.268 100.368 127.628C103.218 126.099 107.498 125 112.5 125C117.502 125 121.782 126.099 124.632 127.628C127.689 129.268 128 130.692 128 131ZM133 131C133 137.075 123.822 142 112.5 142C101.178 142 92 137.075 92 131C92 124.925 101.178 120 112.5 120C123.822 120 133 124.925 133 131ZM45 122C48.3137 122 51 119.314 51 116C51 112.686 48.3137 110 45 110C41.6863 110 39 112.686 39 116C39 119.314 41.6863 122 45 122ZM45 127C51.0751 127 56 122.075 56 116C56 109.925 51.0751 105 45 105C38.9249 105 34 109.925 34 116C34 122.075 38.9249 127 45 127ZM117 51C117 53.4053 114.2 57 108.5 57C102.8 57 100 53.4053 100 51C100 48.5947 102.8 45 108.5 45C114.2 45 117 48.5947 117 51ZM122 51C122 57.0751 115.956 62 108.5 62C101.044 62 95 57.0751 95 51C95 44.9249 101.044 40 108.5 40C115.956 40 122 44.9249 122 51Z" fill="#D3C686"/>
</svg>
