<svg width="100" height="265" viewBox="0 0 100 265" fill="none" xmlns="http://www.w3.org/2000/svg">
<rect y="11.1078" width="84.127" height="253.892" rx="20" fill="url(#paint0_linear_3_37)"/>
<rect y="96.7964" width="84.127" height="87.2754" fill="#008A8A"/>
<rect y="98.3832" width="84.127" height="87.2754" fill="url(#paint1_linear_3_37)"/>
<path fill-rule="evenodd" clip-rule="evenodd" d="M0 185.659V245C0 256.036 8.93779 264.983 19.9694 265H64.1576C75.1892 264.983 84.127 256.036 84.127 245V185.659H0Z" fill="url(#paint2_linear_3_37)"/>
<path d="M67.2222 40C68.3333 42.5 70.5556 51.4 70.5556 67" stroke="#984E24"/>
<path d="M74.6032 53.9521C74.6032 56.5812 72.4712 58.7126 69.8413 58.7126C67.2113 58.7126 65.0794 56.5812 65.0794 53.9521C65.0794 51.323 64.127 44.4311 69.8413 49.1916C75.5556 53.9521 74.6032 51.323 74.6032 53.9521Z" fill="#60973E"/>
<path fill-rule="evenodd" clip-rule="evenodd" d="M0 29.521V38.0838H80C81.4148 38.0838 82.7952 37.9369 84.127 37.6576V29.521C84.127 18.4753 75.1727 9.52096 64.127 9.52096H20C8.9543 9.52096 0 18.4753 0 29.521Z" fill="#A78252"/>
<path d="M0 10C0 4.47716 4.47715 0 10 0H98C99.1046 0 100 0.895431 100 2V16.497C100 27.5427 91.0457 36.497 80 36.497H0V10Z" fill="#31302B"/>
<rect x="23.8095" y="3.17365" width="17.4603" height="3.17365" rx="1.58683" fill="#6B6A62"/>
<rect x="11.1111" y="3.17365" width="9.52381" height="3.17365" rx="1.58683" fill="#6B6A62"/>
<rect y="185.659" width="84.127" height="4.76048" fill="#A97D64"/>
<rect x="58.8889" y="188" width="22.2222" height="15" rx="3" fill="#A97D64"/>
<path d="M70 194L60.3775 188L79.6225 188L70 194Z" fill="#95674C"/>
<path d="M3.21575e-06 98.5L5.55556 98.5L35.6171 187.171L30.3045 188.633L3.21575e-06 98.5Z" fill="#A97D64"/>
<defs>
<linearGradient id="paint0_linear_3_37" x1="42.0635" y1="11.1078" x2="42.1921" y2="189" gradientUnits="userSpaceOnUse">
<stop stop-color="#DEB887"/>
<stop offset="1" stop-color="#B18244"/>
</linearGradient>
<linearGradient id="paint1_linear_3_37" x1="42.0635" y1="98.3832" x2="42.0635" y2="185.659" gradientUnits="userSpaceOnUse">
<stop stop-color="#0EAEAE"/>
<stop offset="1" stop-color="#049A9A"/>
</linearGradient>
<linearGradient id="paint2_linear_3_37" x1="42.0635" y1="185.659" x2="42.0635" y2="265" gradientUnits="userSpaceOnUse">
<stop stop-color="#494697"/>
<stop offset="1" stop-color="#3C398A"/>
</linearGradient>
</defs>
</svg>
