<svg width="1280" height="720" viewBox="0 0 1280 720" fill="none" xmlns="http://www.w3.org/2000/svg">
<g clip-path="url(#clip0_345_431)">
<rect y="480" width="1280" height="249" fill="#4EBF85"/>
<path fill-rule="evenodd" clip-rule="evenodd" d="M-4.57764e-05 430C-4.57764e-05 430 -177.5 430 50 430C277.5 430 159.532 460.235 393 471C505.617 476.626 589.659 427.717 688 442C793.53 457.327 1065 430 1280 430L1403 456.91V491H1285.72C1169.53 491 934.967 491 701.5 491C468.032 491 233.468 491 117.282 491H-4.57764e-05V430Z" fill="#4EBF85"/>
<path opacity="0.8" d="M626.734 474.975L634.028 476.361L638.903 470.877L636.484 464.005L629.19 462.618L624.315 468.103L626.734 474.975Z" fill="#EB4444"/>
<path opacity="0.92" d="M588.544 471.651L580.432 473.193L577.742 480.835L583.163 486.935L591.275 485.393L593.966 477.751L588.544 471.651Z" fill="#EB4444"/>
<path opacity="0.82" d="M970.27 694.859L970.27 700.156L974.961 702.805L979.652 700.156L979.652 694.859L974.961 692.21L970.27 694.859Z" fill="#EB4444"/>
<path opacity="0.76" d="M771.131 581.061L774.884 575.186L771.559 569.069L764.48 568.827L760.726 574.703L764.052 580.82L771.131 581.061Z" fill="#EB4444"/>
<path opacity="0.76" d="M1068.72 528.487L1072.48 522.611L1069.15 516.494L1062.07 516.253L1058.32 522.128L1061.65 528.245L1068.72 528.487Z" fill="#EB4444"/>
<path opacity="0.76" d="M1202.72 625.487L1206.48 619.611L1203.15 613.494L1196.07 613.253L1192.32 619.128L1195.65 625.245L1202.72 625.487Z" fill="#EB4444"/>
<path opacity="0.75" d="M426.677 644.13L432.763 639.962L432.116 632.722L425.381 629.65L419.295 633.819L419.942 641.059L426.677 644.13Z" fill="#EB4444"/>
<path opacity="0.82" d="M324.937 525.008L327.468 529.662L332.854 529.749L335.71 525.181L333.18 520.526L327.793 520.44L324.937 525.008Z" fill="#EB4444"/>
<path opacity="0.76" d="M95.6276 520.15L96.1191 513.195L90.2757 509.41L83.941 512.579L83.4495 519.533L89.2929 523.319L95.6276 520.15Z" fill="#EB4444"/>
<path opacity="0.72" d="M1038.18 456.137L1043 454.873L1044.28 450.105L1040.74 446.6L1035.92 447.864L1034.64 452.633L1038.18 456.137Z" fill="#EBE444"/>
<path opacity="0.87" d="M655.854 507.081L661.829 505.625L663.508 499.769L659.213 495.369L653.238 496.825L651.559 502.681L655.854 507.081Z" fill="#EBE444"/>
<path opacity="0.99" d="M1028.42 550.923L1028.01 554.078L1030.53 555.974L1033.45 554.716L1033.86 551.561L1031.34 549.665L1028.42 550.923Z" fill="#EBE444"/>
<path opacity="0.9" d="M887.29 688.801L891.659 687.323L892.53 682.838L889.034 679.831L884.665 681.309L883.793 685.794L887.29 688.801Z" fill="#EBE444"/>
<path opacity="0.96" d="M351.448 598.891L351.624 604.825L356.817 607.587L361.835 604.414L361.66 598.479L356.466 595.718L351.448 598.891Z" fill="#EBE444"/>
<path opacity="0.72" d="M779.531 475.545L784.351 474.281L785.628 469.513L782.086 466.009L777.266 467.272L775.988 472.041L779.531 475.545Z" fill="#1B99C1"/>
<path opacity="0.87" d="M397.202 526.489L403.176 525.034L404.856 519.178L400.56 514.777L394.586 516.233L392.907 522.089L397.202 526.489Z" fill="#1B99C1"/>
<path opacity="0.99" d="M769.766 570.331L769.361 573.486L771.878 575.382L774.799 574.124L775.203 570.969L772.687 569.073L769.766 570.331Z" fill="#1B99C1"/>
<path opacity="0.9" d="M628.638 708.21L633.006 706.731L633.878 702.246L630.381 699.239L626.013 700.718L625.141 705.203L628.638 708.21Z" fill="#1B99C1"/>
<path opacity="0.96" d="M92.7959 618.299L92.9714 624.234L98.1648 626.995L103.183 623.822L103.007 617.887L97.8139 615.126L92.7959 618.299Z" fill="#1B99C1"/>
</g>
<defs>
<clipPath id="clip0_345_431">
<rect width="1280" height="720" fill="white"/>
</clipPath>
</defs>
</svg>
