<svg width="1280" height="720" viewBox="0 0 1280 720" fill="none" xmlns="http://www.w3.org/2000/svg">
<g clip-path="url(#clip0_327_405)">
<rect y="480" width="1280" height="249" fill="#4EBF85"/>
<path fill-rule="evenodd" clip-rule="evenodd" d="M-4.57764e-05 430C-4.57764e-05 430 -177.5 430 50 430C277.5 430 468.032 342.08 701.5 352.845C814.117 358.471 844.159 359.217 942.5 373.5C1048.03 388.827 1065 430 1280 430L1403 456.91V491H1285.72C1169.53 491 934.967 491 701.5 491C468.032 491 233.468 491 117.282 491H-4.57764e-05V430Z" fill="#4EBF85"/>
<path opacity="0.8" d="M662.245 474.975L654.951 476.361L650.076 470.877L652.495 464.005L659.789 462.618L664.664 468.103L662.245 474.975Z" fill="#EB4444"/>
<path opacity="0.92" d="M700.435 471.651L708.547 473.193L711.237 480.835L705.816 486.935L697.704 485.393L695.013 477.751L700.435 471.651Z" fill="#EB4444"/>
<path opacity="0.82" d="M318.709 694.859L318.709 700.156L314.018 702.805L309.327 700.156L309.327 694.859L314.018 692.21L318.709 694.859Z" fill="#EB4444"/>
<path opacity="0.76" d="M517.848 581.061L514.095 575.186L517.42 569.069L524.499 568.827L528.253 574.703L524.927 580.82L517.848 581.061Z" fill="#EB4444"/>
<path opacity="0.76" d="M220.254 528.487L216.501 522.611L219.826 516.494L226.905 516.253L230.659 522.128L227.333 528.245L220.254 528.487Z" fill="#EB4444"/>
<path opacity="0.76" d="M86.2542 625.487L82.5006 619.611L85.826 613.494L92.9051 613.253L96.6587 619.128L93.3332 625.245L86.2542 625.487Z" fill="#EB4444"/>
<path opacity="0.75" d="M862.303 644.13L856.216 639.962L856.863 632.722L863.598 629.65L869.685 633.819L869.037 641.059L862.303 644.13Z" fill="#EB4444"/>
<path opacity="0.82" d="M964.042 525.008L961.511 529.662L956.125 529.749L953.269 525.181L955.799 520.526L961.186 520.44L964.042 525.008Z" fill="#EB4444"/>
<path opacity="0.76" d="M1193.35 520.15L1192.86 513.195L1198.7 509.41L1205.04 512.579L1205.53 519.533L1199.69 523.319L1193.35 520.15Z" fill="#EB4444"/>
<path opacity="0.72" d="M356.036 456.137L351.216 454.873L349.938 450.105L353.48 446.6L358.3 447.864L359.578 452.633L356.036 456.137Z" fill="#EBE444"/>
<path opacity="0.92" d="M571.144 372.123L570.445 378.072L564.983 380.391L560.218 376.76L560.916 370.811L566.379 368.492L571.144 372.123Z" fill="#EBE444"/>
<path opacity="0.87" d="M738.364 507.081L732.39 505.625L730.711 499.769L735.006 495.369L740.98 496.825L742.66 502.681L738.364 507.081Z" fill="#EBE444"/>
<path opacity="0.99" d="M365.801 550.923L366.205 554.078L363.689 555.974L360.768 554.716L360.363 551.561L362.88 549.665L365.801 550.923Z" fill="#EBE444"/>
<path opacity="0.9" d="M506.929 688.801L502.56 687.323L501.689 682.838L505.185 679.831L509.554 681.309L510.426 685.794L506.929 688.801Z" fill="#EBE444"/>
<path opacity="0.96" d="M1042.77 598.891L1042.6 604.825L1037.4 607.587L1032.38 604.414L1032.56 598.479L1037.75 595.718L1042.77 598.891Z" fill="#EBE444"/>
<path opacity="0.72" d="M97.3833 475.545L92.5633 474.281L91.2856 469.513L94.8279 466.009L99.6478 467.272L100.926 472.041L97.3833 475.545Z" fill="#1B99C1"/>
<path opacity="0.87" d="M479.712 526.489L473.738 525.034L472.059 519.178L476.354 514.777L482.328 516.233L484.007 522.089L479.712 526.489Z" fill="#1B99C1"/>
<path opacity="0.99" d="M107.148 570.331L107.553 573.486L105.036 575.382L102.115 574.124L101.711 570.969L104.227 569.073L107.148 570.331Z" fill="#1B99C1"/>
<path opacity="0.9" d="M248.276 708.21L243.908 706.731L243.036 702.246L246.533 699.239L250.901 700.718L251.773 705.203L248.276 708.21Z" fill="#1B99C1"/>
<path opacity="0.96" d="M784.118 618.299L783.943 624.234L778.749 626.995L773.731 623.822L773.907 617.887L779.1 615.126L784.118 618.299Z" fill="#1B99C1"/>
</g>
<defs>
<clipPath id="clip0_327_405">
<rect width="1280" height="720" fill="white"/>
</clipPath>
</defs>
</svg>
