<svg width="128" height="128" viewBox="0 0 128 128" fill="none" xmlns="http://www.w3.org/2000/svg">
<rect y="7.24527" width="128" height="120.755" rx="20" fill="#927147"/>
<rect width="128" height="120.755" rx="20" fill="url(#paint0_linear_228_295)"/>
<rect x="0.640015" y="41.0566" width="23.68" height="8.45283" rx="4.22642" fill="#C79D66"/>
<rect x="99.2" y="26.566" width="23.68" height="8.45283" rx="4.22642" fill="#C79D66"/>
<rect x="15.36" y="65.2076" width="19.2" height="8.45283" rx="4.22642" fill="#E8C79D"/>
<rect x="86.4" y="41.0566" width="19.2" height="8.45283" rx="4.22642" fill="#E8C79D"/>
<rect x="34.56" y="8.45282" width="19.2" height="8.45283" rx="4.22642" fill="#E8C79D"/>
<rect x="52.48" y="49.5094" width="23.68" height="8.45283" rx="4.22642" fill="#BD9764"/>
<rect x="90.24" y="95.3962" width="23.68" height="8.45283" rx="4.22642" fill="#BD9764"/>
<rect x="59.52" y="100.226" width="39.04" height="8.45283" rx="4.22642" fill="#BB8641"/>
<path fill-rule="evenodd" clip-rule="evenodd" d="M12.8 16.7733H28.8719H30.4714L30.823 18.3338L32.8445 27.3067H32.9722H33.5243H102.036C107.859 27.3067 112.149 32.7527 110.786 38.4139L103.202 69.9072C102.228 73.9505 98.6105 76.8 94.4517 76.8H40.6129L39.1669 78.8198C37.9946 80.4573 37.9536 82.6482 39.064 84.3284C39.7097 85.3055 40.8027 85.8933 41.9739 85.8933H100.35V89.8933H41.9739C39.4596 89.8933 37.1131 88.6314 35.7268 86.5338C33.7026 83.4707 33.7773 79.4766 35.9145 76.4913L38.6652 72.6491L39.1682 73.0092L29.7731 31.3067L29.157 28.5722L29.0355 28.5996L27.2724 20.7733H12.8V16.7733ZM106.897 37.4773L99.3127 68.9707C98.7717 71.2169 96.7622 72.8 94.4517 72.8H43.2214L33.8733 31.3067H102.036C105.271 31.3067 107.655 34.3323 106.897 37.4773ZM47.4815 104.227C49.3506 104.227 50.9404 102.686 50.9404 100.693C50.9404 98.7005 49.3506 97.16 47.4815 97.16C45.6124 97.16 44.0226 98.7005 44.0226 100.693C44.0226 102.686 45.6124 104.227 47.4815 104.227ZM47.4815 109.227C52.1532 109.227 55.9404 105.406 55.9404 100.693C55.9404 95.9805 52.1532 92.16 47.4815 92.16C42.8098 92.16 39.0226 95.9805 39.0226 100.693C39.0226 105.406 42.8098 109.227 47.4815 109.227ZM93.1595 104.227C95.0286 104.227 96.6184 102.686 96.6184 100.693C96.6184 98.7005 95.0286 97.16 93.1595 97.16C91.2905 97.16 89.7006 98.7005 89.7006 100.693C89.7006 102.686 91.2905 104.227 93.1595 104.227ZM93.1595 109.227C97.8313 109.227 101.618 105.406 101.618 100.693C101.618 95.9805 97.8313 92.16 93.1595 92.16C88.4878 92.16 84.7006 95.9805 84.7006 100.693C84.7006 105.406 88.4878 109.227 93.1595 109.227Z" fill="#422A00"/>
<path d="M12.8 16.7733V16.2733H12.3V16.7733H12.8ZM30.4714 16.7733L30.9592 16.6635L30.8713 16.2733H30.4714V16.7733ZM30.823 18.3338L30.3352 18.4437L30.3352 18.4437L30.823 18.3338ZM32.8445 27.3067L32.3567 27.4166L32.4446 27.8067H32.8445V27.3067ZM110.786 38.4139L110.3 38.2968L110.3 38.2968L110.786 38.4139ZM103.202 69.9072L102.715 69.7901L102.715 69.7901L103.202 69.9072ZM40.6129 76.8V76.3H40.3559L40.2064 76.509L40.6129 76.8ZM39.1669 78.8198L38.7603 78.5287L38.7603 78.5287L39.1669 78.8198ZM39.064 84.3284L39.4811 84.0527L39.4811 84.0527L39.064 84.3284ZM100.35 85.8933H100.85V85.3933H100.35V85.8933ZM100.35 89.8933V90.3933H100.85V89.8933H100.35ZM35.7268 86.5338L36.144 86.2581L36.144 86.2581L35.7268 86.5338ZM35.9145 76.4913L35.5079 76.2003L35.5079 76.2003L35.9145 76.4913ZM38.6652 72.6491L38.9563 72.2426L38.5497 71.9515L38.2587 72.358L38.6652 72.6491ZM39.1682 73.0092L38.8772 73.4158L39.9445 74.1799L39.656 72.8994L39.1682 73.0092ZM29.7731 31.3067L30.2608 31.1968L30.2608 31.1968L29.7731 31.3067ZM29.157 28.5722L29.6448 28.4623L29.5349 27.9745L29.0471 28.0844L29.157 28.5722ZM29.0355 28.5996L28.5478 28.7095L28.6576 29.1972L29.1454 29.0874L29.0355 28.5996ZM27.2724 20.7733L27.7601 20.6635L27.6722 20.2733H27.2724V20.7733ZM12.8 20.7733H12.3V21.2733H12.8V20.7733ZM99.3127 68.9707L99.7988 69.0877L99.7988 69.0877L99.3127 68.9707ZM106.897 37.4773L107.383 37.5944L107.383 37.5944L106.897 37.4773ZM43.2214 72.8L42.7336 72.9099L42.8215 73.3H43.2214V72.8ZM33.8733 31.3067V30.8067H33.2481L33.3855 31.4166L33.8733 31.3067ZM28.8719 16.2733H12.8V17.2733H28.8719V16.2733ZM30.4714 16.2733H28.8719V17.2733H30.4714V16.2733ZM31.3108 18.2239L30.9592 16.6635L29.9837 16.8832L30.3352 18.4437L31.3108 18.2239ZM33.3323 27.1968L31.3108 18.2239L30.3352 18.4437L32.3567 27.4166L33.3323 27.1968ZM32.9722 26.8067H32.8445V27.8067H32.9722V26.8067ZM33.5243 26.8067H32.9722V27.8067H33.5243V26.8067ZM102.036 26.8067H33.5243V27.8067H102.036V26.8067ZM111.272 38.5309C112.711 32.5553 108.183 26.8067 102.036 26.8067V27.8067C107.536 27.8067 111.588 32.9501 110.3 38.2968L111.272 38.5309ZM103.688 70.0243L111.272 38.5309L110.3 38.2968L102.715 69.7901L103.688 70.0243ZM94.4517 77.3C98.8416 77.3 102.66 74.2922 103.688 70.0243L102.715 69.7901C101.796 73.6088 98.3795 76.3 94.4517 76.3V77.3ZM40.6129 77.3H94.4517V76.3H40.6129V77.3ZM40.2064 76.509L38.7603 78.5287L39.5734 79.1109L41.0195 77.0911L40.2064 76.509ZM38.7603 78.5287C37.4674 80.3347 37.4222 82.7511 38.6468 84.6041L39.4811 84.0527C38.485 82.5454 38.5217 80.5799 39.5734 79.1109L38.7603 78.5287ZM38.6468 84.6041C39.3851 85.7213 40.6348 86.3933 41.9739 86.3933V85.3933C40.9706 85.3933 40.0343 84.8898 39.4811 84.0527L38.6468 84.6041ZM41.9739 86.3933H100.35V85.3933H41.9739V86.3933ZM99.8496 85.8933V89.8933H100.85V85.8933H99.8496ZM100.35 89.3933H41.9739V90.3933H100.35V89.3933ZM41.9739 89.3933C39.6275 89.3933 37.4377 88.2157 36.144 86.2581L35.3097 86.8094C36.7885 89.0472 39.2917 90.3933 41.9739 90.3933V89.3933ZM36.144 86.2581C34.234 83.3679 34.3044 79.5992 36.321 76.7824L35.5079 76.2003C33.2501 79.354 33.1712 83.5735 35.3097 86.8094L36.144 86.2581ZM36.321 76.7824L39.0718 72.9402L38.2587 72.358L35.5079 76.2003L36.321 76.7824ZM38.3741 73.0557L38.8772 73.4158L39.4593 72.6027L38.9563 72.2426L38.3741 73.0557ZM29.2853 31.4166L38.6805 73.1191L39.656 72.8994L30.2608 31.1968L29.2853 31.4166ZM28.6692 28.6821L29.2853 31.4166L30.2608 31.1968L29.6448 28.4623L28.6692 28.6821ZM29.1454 29.0874L29.2669 29.06L29.0471 28.0844L28.9256 28.1118L29.1454 29.0874ZM26.7846 20.8832L28.5478 28.7095L29.5233 28.4897L27.7601 20.6635L26.7846 20.8832ZM12.8 21.2733H27.2724V20.2733H12.8V21.2733ZM12.3 16.7733V20.7733H13.3V16.7733H12.3ZM99.7988 69.0877L107.383 37.5944L106.411 37.3603L98.8266 68.8536L99.7988 69.0877ZM94.4517 73.3C96.9932 73.3 99.2037 71.5586 99.7988 69.0877L98.8266 68.8536C98.3397 70.8752 96.5311 72.3 94.4517 72.3V73.3ZM43.2214 73.3H94.4517V72.3H43.2214V73.3ZM33.3855 31.4166L42.7336 72.9099L43.7091 72.6901L34.3611 31.1968L33.3855 31.4166ZM102.036 30.8067H33.8733V31.8067H102.036V30.8067ZM107.383 37.5944C108.216 34.1348 105.595 30.8067 102.036 30.8067V31.8067C104.948 31.8067 107.093 34.5297 106.411 37.3603L107.383 37.5944ZM50.4404 100.693C50.4404 102.412 49.0721 103.727 47.4815 103.727V104.727C49.629 104.727 51.4404 102.96 51.4404 100.693H50.4404ZM47.4815 97.66C49.0721 97.66 50.4404 98.9743 50.4404 100.693H51.4404C51.4404 98.4267 49.629 96.66 47.4815 96.66V97.66ZM44.5226 100.693C44.5226 98.9743 45.8909 97.66 47.4815 97.66V96.66C45.3339 96.66 43.5226 98.4267 43.5226 100.693H44.5226ZM47.4815 103.727C45.8909 103.727 44.5226 102.412 44.5226 100.693H43.5226C43.5226 102.96 45.3339 104.727 47.4815 104.727V103.727ZM55.4404 100.693C55.4404 105.134 51.8729 108.727 47.4815 108.727V109.727C52.4335 109.727 56.4404 105.678 56.4404 100.693H55.4404ZM47.4815 92.66C51.8729 92.66 55.4404 96.2525 55.4404 100.693H56.4404C56.4404 95.7085 52.4335 91.66 47.4815 91.66V92.66ZM39.5226 100.693C39.5226 96.2525 43.09 92.66 47.4815 92.66V91.66C42.5295 91.66 38.5226 95.7085 38.5226 100.693H39.5226ZM47.4815 108.727C43.09 108.727 39.5226 105.134 39.5226 100.693H38.5226C38.5226 105.678 42.5295 109.727 47.4815 109.727V108.727ZM96.1184 100.693C96.1184 102.412 94.7502 103.727 93.1595 103.727V104.727C95.3071 104.727 97.1184 102.96 97.1184 100.693H96.1184ZM93.1595 97.66C94.7502 97.66 96.1184 98.9743 96.1184 100.693H97.1184C97.1184 98.4267 95.3071 96.66 93.1595 96.66V97.66ZM90.2006 100.693C90.2006 98.9743 91.5689 97.66 93.1595 97.66V96.66C91.012 96.66 89.2006 98.4267 89.2006 100.693H90.2006ZM93.1595 103.727C91.5689 103.727 90.2006 102.412 90.2006 100.693H89.2006C89.2006 102.96 91.012 104.727 93.1595 104.727V103.727ZM101.118 100.693C101.118 105.134 97.551 108.727 93.1595 108.727V109.727C98.1115 109.727 102.118 105.678 102.118 100.693H101.118ZM93.1595 92.66C97.551 92.66 101.118 96.2525 101.118 100.693H102.118C102.118 95.7085 98.1115 91.66 93.1595 91.66V92.66ZM85.2006 100.693C85.2006 96.2525 88.7681 92.66 93.1595 92.66V91.66C88.2076 91.66 84.2006 95.7085 84.2006 100.693H85.2006ZM93.1595 108.727C88.7681 108.727 85.2006 105.134 85.2006 100.693H84.2006C84.2006 105.678 88.2076 109.727 93.1595 109.727V108.727Z" fill="#422A00"/>
<defs>
<linearGradient id="paint0_linear_228_295" x1="64" y1="0" x2="64" y2="120.755" gradientUnits="userSpaceOnUse">
<stop stop-color="#DEB887"/>
<stop offset="1" stop-color="#C49E6E"/>
</linearGradient>
</defs>
</svg>
